<mxfile host="app.diagrams.net" modified="2023-11-26T05:58:23.261Z" agent="Mozilla/5.0 (Windows NT 10.0; Win64; x64) AppleWebKit/537.36 (KHTML, like Gecko) Chrome/118.0.0.0 Whale/3.23.214.10 Safari/537.36" version="22.1.4" etag="QeoTHbUS66T_53w8zMWr" type="github">
  <diagram name="페이지-1" id="gSEt_saZW_oeZ9PykX67">
    <mxGraphModel>
      <root>
        <mxCell id="0" />
        <mxCell id="1" parent="0" />
      </root>
    </mxGraphModel>
  </diagram>
</mxfile>
